<svg xmlns="http://www.w3.org/2000/svg" viewBox="0 0 1366 768" style="enable-background:new 0 0 1366 768" xml:space="preserve">
  <path d="M532.78 374v-14h8.42v1.8h-6.46v4.16h5.82v1.76h-5.82v4.48h6.5v1.8h-8.46zM550.04 374.3c-1.08 0-2.03-.22-2.85-.67-.82-.45-1.46-1.07-1.91-1.88s-.68-1.74-.68-2.79V360h1.96v8.96c0 .69.15 1.31.45 1.84.3.53.71.95 1.24 1.24.53.29 1.14.44 1.83.44.69 0 1.31-.15 1.84-.44.53-.29.95-.71 1.24-1.24.29-.53.44-1.15.44-1.84V360h1.98v8.96c0 1.05-.23 1.98-.69 2.79s-1.11 1.43-1.94 1.88c-.83.45-1.8.67-2.91.67zM565.48 374.24c-1.41 0-2.67-.31-3.77-.93s-1.96-1.47-2.58-2.56c-.62-1.09-.93-2.33-.93-3.73 0-1.43.31-2.68.93-3.77.62-1.09 1.48-1.94 2.58-2.56s2.36-.93 3.77-.93c.77 0 1.52.12 2.23.37s1.36.59 1.94 1.02c.58.43 1.05.93 1.41 1.49l-1.58 1.04a4.32 4.32 0 0 0-1.04-1.1c-.43-.32-.9-.57-1.41-.75-.51-.18-1.03-.27-1.55-.27-1.03 0-1.94.23-2.73.7a5.07 5.07 0 0 0-1.87 1.92c-.45.81-.68 1.76-.68 2.84 0 1.05.22 1.99.67 2.8.45.81 1.07 1.45 1.88 1.92.81.47 1.73.7 2.77.7.84 0 1.59-.17 2.25-.52a3.92 3.92 0 0 0 1.56-1.46c.38-.63.57-1.35.57-2.18l1.9-.18c0 1.24-.27 2.32-.81 3.24s-1.28 1.63-2.23 2.14c-.95.51-2.04.76-3.28.76zm1.02-5.84v-1.64h5.3v1.44l-1 .2h-4.3zM574.44 374v-14h8.42v1.8h-6.46v4.16h5.82v1.76h-5.82v4.48h6.5v1.8h-8.46zM586.46 374v-14h2.02l7.92 10.72V360h1.98v14h-1.98l-7.98-10.82V374h-1.96zM602.14 374v-14h1.96v14h-1.96zM606.26 374l5.64-14h2l-5.54 14h-2.1zm2.66-3.74v-1.76h8.06v1.76h-8.06zm8.62 3.74L612 360h2l5.64 14h-2.1zM532.78 393v-14h1.9v14h-1.9zm1.28-4.44-.58-2.08 7.14-7.48h2.5l-9.06 9.56zm6.9 4.44-5.7-7.12 1.34-1.24 6.78 8.36h-2.42zM550.72 393.3c-1.08 0-2.03-.22-2.85-.67-.82-.45-1.46-1.07-1.91-1.88s-.68-1.74-.68-2.79V379h1.96v8.96c0 .69.15 1.31.45 1.84.3.53.71.95 1.24 1.24.53.29 1.14.44 1.83.44.69 0 1.31-.15 1.84-.44s.95-.71 1.24-1.24c.29-.53.44-1.15.44-1.84V379h1.98v8.96c0 1.05-.23 1.98-.69 2.79s-1.11 1.43-1.94 1.88c-.83.45-1.8.67-2.91.67zM558.9 393v-1.84l8.48-10.32h-8.42V379h10.94v1.84l-8.48 10.32h8.42V393H558.9zM572.76 393v-14h2.02l7.92 10.72V379h1.98v14h-1.98l-7.98-10.82V393h-1.96zM588.44 393v-14h8.42v1.8h-6.46v4.16h5.82v1.76h-5.82v4.48h6.5v1.8h-8.46zM603.3 393v-12.2h-4.38V379h10.74v1.8h-4.38V393h-1.98zM616.4 393.24c-.75 0-1.42-.09-2.03-.26-.61-.17-1.13-.41-1.58-.71-.45-.3-.82-.64-1.11-1.01-.29-.37-.5-.77-.62-1.18l1.9-.62c.2.55.58 1.02 1.14 1.42.56.4 1.25.61 2.06.62.99 0 1.76-.2 2.33-.59.57-.39.85-.92.85-1.57 0-.6-.25-1.09-.74-1.47-.49-.38-1.15-.67-1.96-.87l-1.62-.42c-.64-.17-1.22-.42-1.75-.74s-.94-.73-1.25-1.22-.46-1.09-.46-1.78c0-1.28.42-2.28 1.25-3 .83-.72 2.04-1.08 3.61-1.08.91 0 1.69.14 2.36.43.67.29 1.22.66 1.65 1.13.43.47.74.98.93 1.54l-1.9.64c-.23-.6-.61-1.08-1.16-1.45-.55-.37-1.22-.55-2.02-.55-.84 0-1.5.2-1.99.6s-.73.95-.73 1.64c0 .59.19 1.04.57 1.35.38.31.89.55 1.53.71l1.62.4c1.31.32 2.32.85 3.03 1.59s1.07 1.55 1.07 2.43c0 .76-.19 1.44-.57 2.05-.38.61-.94 1.09-1.68 1.44-.74.35-1.65.53-2.73.53zM630.38 393.24c-1.36 0-2.57-.31-3.62-.92a6.474 6.474 0 0 1-2.47-2.56c-.59-1.09-.89-2.34-.89-3.74 0-1.43.3-2.68.89-3.77.59-1.09 1.41-1.94 2.45-2.56s2.24-.93 3.6-.93c1.36 0 2.56.31 3.6.93s1.85 1.47 2.44 2.56c.59 1.09.88 2.34.88 3.75s-.29 2.67-.88 3.76c-.59 1.09-1.4 1.95-2.43 2.56-1.03.61-2.22.92-3.57.92zm.02-1.8c.95 0 1.79-.23 2.52-.7s1.31-1.11 1.72-1.92c.41-.81.62-1.75.62-2.82 0-1.05-.21-1.99-.63-2.81s-1-1.46-1.74-1.93-1.59-.7-2.55-.7-1.81.23-2.56.7-1.33 1.11-1.75 1.93c-.42.82-.63 1.76-.63 2.81 0 1.07.21 2.01.64 2.82s1.02 1.45 1.77 1.92 1.62.7 2.59.7zM644 393l-5.74-14h2.1l5.6 14H644zm.2 0 5.62-14h2.1l-5.74 14h-1.98zM651.42 393l5.64-14h2l-5.54 14h-2.1zm2.66-3.74v-1.76h8.06v1.76h-8.06zm8.62 3.74-5.54-14h2l5.64 14h-2.1z"/>
</svg>
